<svg width="98" height="82" viewBox="0 0 98 82" fill="none" xmlns="http://www.w3.org/2000/svg">
<path d="M88.373 37.5209H24.3777L62.6808 9.69946C63.2933 9.25103 62.9214 8.41821 62.1121 8.41821H52.4324C52.0058 8.41821 51.6011 8.54634 51.2839 8.77513L9.95112 38.7838C9.57256 39.0584 9.26896 39.3979 9.06088 39.7792C8.8528 40.1605 8.74512 40.5748 8.74512 40.994C8.74512 41.4132 8.8528 41.8275 9.06088 42.2088C9.26896 42.5901 9.57256 42.9296 9.95112 43.2042L51.5246 73.3959C51.6886 73.5149 51.8855 73.5789 52.0933 73.5789H62.1011C62.9105 73.5789 63.2824 72.737 62.6699 72.2977L24.3777 44.4763H88.373C88.8542 44.4763 89.248 44.1468 89.248 43.7441V38.253C89.248 37.8504 88.8542 37.5209 88.373 37.5209Z" fill="black" fill-opacity="0.85"/>
</svg>
