<svg width="63" height="63" viewBox="0 0 63 63" fill="none" xmlns="http://www.w3.org/2000/svg">
<path d="M8.56528 58.0035C8.56528 58.0035 8.50798 59.4119 9.88544 59.4119C11.5995 59.4119 25.7655 59.3928 25.7655 59.3928L25.7894 46.3798C25.7894 46.3798 25.565 44.2361 27.6443 44.2361H34.2356C36.6968 44.2361 36.5464 46.3798 36.5464 46.3798L36.5178 59.3523C36.5178 59.3523 49.9533 59.3523 52.0637 59.3523C53.8112 59.3523 53.7324 57.6 53.7324 57.6V33.6032L31.822 14.1159L8.56528 33.6056V58.0035Z" fill="black"/>
<path d="M0 31.7913C0 31.7913 1.97188 35.4295 6.2809 31.7913L32.018 10.017L56.1462 31.6552C61.1308 35.2504 63 31.6552 63 31.6552L32.018 3.59045L0 31.7913Z" fill="black"/>
<path d="M55.559 9.96684H49.3545L49.3808 17.4939L55.559 22.7387V9.96684Z" fill="black"/>
</svg>
